<?xml version="1.0" encoding="UTF-8"?>
<svg viewBox="0 0 800 800" xmlns="http://www.w3.org/2000/svg" xmlns:xlink="http://www.w3.org/1999/xlink">
 <defs>
  <filter id="g">
   <feGaussianBlur stdDeviation="3.7"/>
  </filter>
  <linearGradient id="a">
   <stop stop-color="#fff" offset="0"/>
   <stop stop-color="#fff" stop-opacity="0" offset="1"/>
  </linearGradient>
  <radialGradient id="j" cx="199.28" cy="192.84" r="53.688" gradientTransform="matrix(0 6.0948 -2.1215 0 805.6 -820.1)" gradientUnits="userSpaceOnUse">
   <stop stop-color="#f7f7f7" offset="0"/>
   <stop stop-color="#e1e1e1" offset="1"/>
  </radialGradient>
  <radialGradient id="h" cx="289.43" cy="209.67" r="92.5" gradientTransform="matrix(-1.8448 1.8448 -4.1613 -4.1613 1418 348.1)" gradientUnits="userSpaceOnUse" xlink:href="#a"/>
  <radialGradient id="k" cx="199.28" cy="192.84" r="68.844" gradientTransform="matrix(0 5.894 -1.7479 0 733.54 -780.08)" gradientUnits="userSpaceOnUse">
   <stop stop-color="#6c6c6c" offset="0"/>
   <stop stop-color="#3e3e3e" offset="1"/>
  </radialGradient>
  <radialGradient id="i" cx="289.43" cy="209.67" r="92.5" gradientTransform="matrix(1.8448 -1.8448 4.1613 4.1613 -625.05 440.85)" gradientUnits="userSpaceOnUse" xlink:href="#a"/>
 </defs>
 <g fill-rule="evenodd" stroke-width="2.7">
  <path d="m402.24 10.486c-216.65 0-392.48 175.83-392.48 392.48s175.83 392.48 392.48 392.48 392.48-175.83 392.48-392.48-175.83-392.48-392.48-392.48zm0 381.47c6.0812 0 11.005 4.9241 11.005 11.005 0 6.0812-4.9241 11.005-11.005 11.005-6.0812 0-11.005-4.9241-11.005-11.005 0-6.0812 4.9241-11.005 11.005-11.005z" fill-opacity=".509" filter="url(#g)"/>
  <path d="m396.48 2c-216.65 0-392.48 175.83-392.48 392.48s175.83 392.48 392.48 392.48 392.48-175.83 392.48-392.48-175.83-392.48-392.48-392.48zm0 381.47c6.0812 0 11.005 4.9241 11.005 11.005 0 6.0812-4.9241 11.005-11.005 11.005-6.0812 0-11.005-4.9241-11.005-11.005 0-6.0812 4.9241-11.005 11.005-11.005z"/>
  <path d="m396.48 251.61c-78.833 0-142.87 64.036-142.87 142.87 0 78.833 64.036 142.87 142.87 142.87 78.833 0 142.87-64.036 142.87-142.87 0-78.833-64.036-142.87-142.87-142.87zm0 133.46c5.2063 0 9.4141 4.2078 9.4141 9.4142 0 5.2063-4.2078 9.4141-9.4141 9.4141-5.2064 0-9.4142-4.2078-9.4142-9.4141 0-5.2064 4.2078-9.4142 9.4142-9.4142z" fill="#333"/>
  <path d="m396.48 2c-216.65 0-392.48 175.83-392.48 392.48s175.83 392.48 392.48 392.48 392.48-175.83 392.48-392.48-175.83-392.48-392.48-392.48zm0 7.6241c212.46 0 384.92 172.39 384.92 384.85s-172.46 384.92-384.92 384.92-384.92-172.46-384.92-384.92 172.46-384.85 384.92-384.85z"/>
  <path d="m594.97 394.48c0 109.58-88.914 198.56-198.49 198.56v186.36c212.46 0 384.92-172.46 384.92-384.92h-186.43z" fill="url(#i)"/>
  <path d="m197.98 394.48c0-109.58 88.914-198.56 198.49-198.56v-186.36c-212.46 0-384.92 172.45-384.92 384.92h186.43z" fill="url(#h)"/>
  <path d="m499.75 291.2c-56.998-56.998-149.55-56.998-206.55 0-56.998 56.998-56.998 149.55 0 206.55 56.998 56.998 149.55 56.998 206.55 0 56.998-56.998 56.998-149.55 0-206.55zm-4.5473 4.5473c54.489 54.489 54.489 142.97 0 197.45-54.489 54.489-142.97 54.489-197.45 0-54.489-54.489-54.489-142.97 0-197.45 54.489-54.489 142.97-54.489 197.45 0z" fill="url(#k)"/>
  <path d="m477.02 313.94c-44.451-44.451-116.62-44.451-161.08 0-44.451 44.451-44.451 116.62 0 161.08 44.451 44.451 116.62 44.451 161.08 0 44.451-44.451 44.451-116.62 0-161.08zm-72.756 72.756c4.3 4.3 4.3 11.264 0 15.564s-11.264 4.3-15.564 0-4.3-11.264 0-15.564 11.264-4.3 15.564 0z" fill="url(#j)"/>
  <g fill="#fff">
   <path d="m489.72 301.24c-14.982-14.982-32.684-25.571-51.52-31.831l-2.6252 7.8757c17.641 5.8648 34.208 15.832 48.238 29.862 17.091 17.091 28.122 37.942 33.097 59.911l8.11-1.8283c-5.3081-23.454-17.052-45.742-35.3-63.99z" opacity=".743"/>
   <path d="m274.73 373.8l-8.2507-1.4064c-6.8676 40.676 5.3853 83.955 36.753 115.32 31.284 31.284 74.414 43.547 114.99 36.8l-1.3595-8.2038c-38.028 6.3303-78.415-5.1896-107.73-34.503-29.388-29.388-40.846-69.897-34.409-108.01z" opacity=".743"/>
  </g>
 </g>
</svg>
