<?xml version="1.0" encoding="UTF-8"?>
<svg viewBox="0 0 516 516" xmlns="http://www.w3.org/2000/svg" xmlns:xlink="http://www.w3.org/1999/xlink">
 <defs>
  <filter id="g">
   <feGaussianBlur stdDeviation="3.7"/>
  </filter>
  <linearGradient id="a">
   <stop stop-color="#fff" offset="0"/>
   <stop stop-color="#fff" stop-opacity="0" offset="1"/>
  </linearGradient>
  <radialGradient id="j" cx="199.28" cy="192.84" r="53.688" gradientTransform="matrix(0 2.8729 -1 0 392.84 -372.51)" gradientUnits="userSpaceOnUse">
   <stop stop-color="#f7f7f7" offset="0"/>
   <stop stop-color="#e1e1e1" offset="1"/>
  </radialGradient>
  <radialGradient id="h" cx="289.43" cy="209.67" r="92.5" gradientTransform="matrix(-.86959 .86959 -1.9615 -1.9615 681.51 178.14)" gradientUnits="userSpaceOnUse" xlink:href="#a"/>
  <radialGradient id="k" cx="199.28" cy="192.84" r="68.844" gradientTransform="matrix(0 2.7782 -.82388 0 358.88 -353.65)" gradientUnits="userSpaceOnUse">
   <stop stop-color="#6c6c6c" offset="0"/>
   <stop stop-color="#3e3e3e" offset="1"/>
  </radialGradient>
  <radialGradient id="i" cx="289.43" cy="209.67" r="92.5" gradientTransform="matrix(.86959 -.86959 1.9615 1.9615 -281.51 221.86)" gradientUnits="userSpaceOnUse" xlink:href="#a"/>
 </defs>
 <g fill-rule="evenodd" stroke-width="2.7">
  <path d="m261.23 9.9652c-140.75 0-254.99 113.24-254.99 252.77s114.23 252.77 254.99 252.77c140.75 0 254.99-113.24 254.99-252.77s-114.23-252.77-254.99-252.77zm0 245.68c3.9508 0 7.1499 3.1713 7.1499 7.0878s-3.1991 7.0877-7.1499 7.0877c-3.9509 0-7.15-3.1713-7.15-7.0877 0-3.9165 3.1991-7.0877 7.15-7.0878z" fill-opacity=".509" filter="url(#g)"/>
  <path d="m257.49 4.5c-140.75 0-254.99 113.24-254.99 252.77s114.23 252.77 254.99 252.77c140.75 0 254.99-113.24 254.99-252.77s-114.23-252.77-254.99-252.77zm0 245.68c3.9509 0 7.15 3.1712 7.15 7.0877 0 3.9164-3.1991 7.0877-7.15 7.0877-3.9508 0-7.1499-3.1713-7.1499-7.0877 0-3.9165 3.199-7.0877 7.1499-7.0877z"/>
  <path d="m257.49 165.25c-51.217 0-92.82 41.241-92.82 92.012s41.604 92.012 92.82 92.012c51.217 0 92.82-41.241 92.82-92.012s-41.604-92.012-92.82-92.012zm0 85.949c3.3826 0 6.1163 2.71 6.1163 6.063s-2.7337 6.063-6.1163 6.063c-3.3825 0-6.1162-2.71-6.1162-6.063 0-3.3531 2.7337-6.063 6.1162-6.063z" fill="#333"/>
  <path d="m257.49 4.5c-140.75 0-254.99 113.24-254.99 252.77s114.23 252.77 254.99 252.77c140.75 0 254.99-113.24 254.99-252.77s-114.23-252.77-254.99-252.77zm0 4.9102c138.04 0 250.08 111.02 250.08 247.86 0 136.83-112.04 247.9-250.08 247.9s-250.08-111.07-250.08-247.9 112.04-247.86 250.08-247.86z"/>
  <path d="m386.44 257.27c0 70.572-57.766 127.88-128.96 127.88v120.02c138.04 0 250.08-111.07 250.08-247.9h-121.12z" fill="url(#i)"/>
  <path d="m128.53 257.27c0-70.572 57.766-127.88 128.96-127.88v-120.02c-138.04 0-250.08 111.07-250.08 247.9h121.12z" fill="url(#h)"/>
  <path d="m324.58 190.76c-37.031-36.708-97.161-36.708-134.19 0-37.031 36.708-37.031 96.315 0 133.02 37.031 36.708 97.161 36.708 134.19 0 37.031-36.708 37.031-96.315 0-133.02zm-2.9543 2.9286c35.4 35.092 35.4 92.074 0 127.17-35.4 35.092-92.882 35.092-128.28 0-35.4-35.092-35.4-92.074 0-127.17 35.4-35.092 92.882-35.092 128.28 0z" fill="url(#k)"/>
  <path d="m309.81 205.4c-28.879-28.628-75.77-28.628-104.65 0-28.879 28.628-28.879 75.11 0 103.74 28.879 28.628 75.77 28.628 104.65 0 28.879-28.628 28.879-75.11 0-103.74zm-47.268 46.857c2.7937 2.7694 2.7937 7.2542 0 10.024-2.7937 2.7694-7.3179 2.7694-10.112 0-2.7937-2.7694-2.7937-7.2542 0-10.024 2.7937-2.7694 7.3179-2.7694 10.112 0z" fill="url(#j)"/>
  <g fill="#fff">
   <path d="m318.06 197.22c-9.7333-9.6486-21.234-16.469-33.472-20.5l-1.7056 5.0722c11.461 3.7771 22.224 10.196 31.34 19.232 11.104 11.007 18.271 24.436 21.502 38.585l5.269-1.1775c-3.4486-15.105-11.078-29.459-22.934-41.211z" opacity=".743"/>
   <path d="m178.39 243.95l-5.3603-0.9057c-4.4618 26.196 3.4988 54.069 23.878 74.271 20.324 20.148 48.345 28.045 74.71 23.7l-0.8832-5.2835c-24.706 4.0769-50.945-3.3423-69.989-22.221-19.093-18.926-26.537-45.016-22.355-69.561z" opacity=".743"/>
  </g>
 </g>
 <g fill="#fff" stroke="#000" stroke-dasharray="null" stroke-linecap="null" stroke-linejoin="null" stroke-width="5">
  <rect x="-392.5" y="-2.5" width="0" height="1"/>
  <ellipse cx="259.5" cy="255.5" rx="92" ry="88"/>
 </g>
</svg>
